<?xml version="1.0" encoding="UTF-8"?>
<!DOCTYPE svg PUBLIC "-//W3C//DTD SVG 1.1//EN" "http://www.w3.org/Graphics/SVG/1.1/DTD/svg11.dtd">
<!-- Creator: CorelDRAW X6 -->
<svg xmlns="http://www.w3.org/2000/svg" xml:space="preserve" width="84px" height="75px" version="1.1" style="shape-rendering:geometricPrecision; text-rendering:geometricPrecision; image-rendering:optimizeQuality; fill-rule:evenodd; clip-rule:evenodd"
viewBox="0 0 84 75"
 xmlns:xlink="http://www.w3.org/1999/xlink">
 <defs>
  <style type="text/css">
   <![CDATA[
    .fil0 {fill:#D1D1D1}
   ]]>
  </style>
 </defs>
 <g id="Слой_x0020_1">
  <metadata id="CorelCorpID_0Corel-Layer"/>
  <path class="fil0" d="M69 0l0 0 11 0c1,0 2,0 3,1 1,1 1,2 1,3l0 0 0 30c0,1 0,1 0,1 -1,1 -1,1 -2,1 0,0 0,0 -1,-1 0,0 0,0 0,-1l0 -30c0,0 0,-1 0,-1 0,0 -1,0 -1,0l-19 0 -32 0 -25 0c0,0 -1,0 -1,0 0,0 0,1 0,1l0 9c0,0 0,1 0,1 -1,0 -1,1 -1,1 -1,0 -1,-1 -2,-1 0,0 0,-1 0,-1l0 -9c0,-1 0,-2 1,-3 1,-1 2,-1 3,-1l0 0 25 0 9 0 22 0 0 0 9 0zm15 38c0,0 0,0 0,1l0 0 0 0 0 10c0,0 0,0 0,1l0 0 0 0 0 2 0 6 0 0c0,1 0,2 -1,3 -1,1 -2,1 -3,1l0 0 -26 0 0 6 6 0 0 0c0,0 1,0 1,0 0,0 0,1 0,1l0 5c0,0 0,0 0,1 0,0 -1,0 -1,0l0 0 -36 0 0 0c0,0 -1,0 -1,0 0,-1 0,-1 0,-1l0 -5c0,0 0,-1 0,-1 0,0 1,0 1,0l0 0 6 0 0 -6 -26 0 0 0c-1,0 -2,0 -3,-1 -1,-1 -1,-2 -1,-3l0 -40c0,-1 0,-1 0,-1 1,0 1,-1 2,-1 0,0 0,1 1,1 0,0 0,0 0,1l0 30 9 0 0 -6 0 -5 0 -5c0,0 0,-1 0,-1 0,0 1,-1 1,-1l9 0c1,0 1,1 1,1 1,0 1,1 1,1l0 5 0 5 0 6 4 0 0 -10c0,0 0,-1 0,-1 1,0 1,-1 1,-1 1,0 1,1 1,1 1,0 1,1 1,1l0 10 6 0 0 -20 -6 0 0 5c0,1 0,1 -1,1 0,0 0,1 -1,1 0,0 0,-1 -1,-1 0,0 0,0 0,-1l0 -7 0 -5 0 -5c0,0 0,-1 0,-1 1,0 1,0 1,0l10 0c0,0 0,0 1,0 0,0 0,1 0,1l0 5 0 5 0 22 4 0 0 -6 0 -5 0 -5c0,0 0,-1 1,-1 0,0 0,-1 1,-1l9 0c0,0 1,1 1,1 0,0 0,1 0,1l0 5 0 5 0 6 4 0 0 -29 0 -5 0 -5c0,0 0,-1 1,-1 0,0 0,0 1,0l9 0c0,0 1,0 1,0 0,0 1,1 1,1l0 5 0 5 0 29 8 0 0 -9c0,0 0,-1 0,-1 1,0 1,0 1,0 1,0 1,0 2,0zm-14 -27l-7 0 0 2 7 0 0 -2zm0 5l-7 0 0 2 7 0 0 -2zm0 5l-7 0 0 27 7 0 0 -27zm-17 12l-6 0 0 3 6 0 0 -3zm0 6l-6 0 0 2 6 0 0 -2zm0 5l-6 0 0 4 6 0 0 -4zm-22 -26l0 2 6 0 0 -2 -6 0zm0 5l0 2 6 0 0 -2 -6 0zm-10 10l-6 0 0 3 6 0 0 -3zm0 6l-6 0 0 2 6 0 0 -2zm0 5l-6 0 0 4 6 0 0 -4zm37 28l0 -1 -32 0 0 1 32 0zm-25 -10l0 6 18 0 0 -6 -18 0zm-29 -3l76 0c0,0 1,0 1,0 0,0 0,0 0,-1l0 0 0 -7 -78 0 0 7c0,1 0,1 0,1 0,0 1,0 1,0z"/>
 </g>
</svg>
