<?xml version="1.0" encoding="UTF-8"?>
<!DOCTYPE svg PUBLIC "-//W3C//DTD SVG 1.1//EN" "http://www.w3.org/Graphics/SVG/1.1/DTD/svg11.dtd">
<!-- Creator: CorelDRAW X6 -->
<svg xmlns="http://www.w3.org/2000/svg" xml:space="preserve" width="48px" height="48px" version="1.1" style="shape-rendering:geometricPrecision; text-rendering:geometricPrecision; image-rendering:optimizeQuality; fill-rule:evenodd; clip-rule:evenodd"
viewBox="0 0 8410 8410"
 xmlns:xlink="http://www.w3.org/1999/xlink">
 <defs>
  <style type="text/css">
   <![CDATA[
    .str0 {stroke:#555555;stroke-width:3.78434}
    .fil0 {fill:#555555}
   ]]>
  </style>
 </defs>
 <g id="Слой_x0020_1">
  <metadata id="CorelCorpID_0Corel-Layer"/>
  <g id="_472371216">
   <path class="fil0" d="M8269 7008l-8129 0c-77,0 -140,63 -140,140l0 1121c0,78 63,141 140,141l8129 0c78,0 141,-63 141,-141l0 -1121c0,-77 -63,-140 -141,-140l0 0zm-7989 280l4766 0 0 841 -4766 0 0 -841zm7849 841l-2803 0 0 -841 2803 0 0 841zm0 0z"/>
   <path class="fil0" d="M7429 7849l280 0c77,0 140,-63 140,-140 0,-78 -63,-140 -140,-140l-280 0c-78,0 -141,62 -141,140 0,77 63,140 141,140l0 0zm0 0z"/>
   <path class="fil0" d="M6588 7849l280 0c77,0 140,-63 140,-140 0,-78 -63,-140 -140,-140l-280 0c-78,0 -141,62 -141,140 0,77 63,140 141,140l0 0zm0 0z"/>
   <path class="fil0" d="M5747 7849l280 0c77,0 140,-63 140,-140 0,-78 -63,-140 -140,-140l-280 0c-78,0 -141,62 -141,140 0,77 63,140 141,140l0 0zm0 0z"/>
   <path class="fil0 str0" d="M4485 3644l-560 0c-465,1 -841,377 -841,841l0 421c0,77 62,140 140,140l1962 0c77,0 140,-63 140,-140l0 -421c0,-464 -377,-840 -841,-841l0 0zm561 1121l-1682 0 0 -280c0,-309 251,-560 561,-560l560 0c310,0 561,251 561,560l0 280zm0 0z"/>
   <path class="fil0" d="M4765 3084c0,-310 -251,-561 -560,-561 -310,0 -561,251 -561,561 0,309 251,560 561,560 309,0 560,-251 560,-560zm-560 280c-155,0 -280,-126 -280,-280 0,-155 125,-281 280,-281 155,0 280,126 280,281 0,154 -125,280 -280,280zm0 0z"/>
   <path class="fil0" d="M2243 2803l-1402 0 0 -280c0,-310 251,-561 561,-561l560 0c75,0 149,15 219,44 71,30 152,-4 182,-75 30,-71 -3,-152 -73,-183 -104,-44 -215,-66 -328,-66l-560 0c-465,0 -841,377 -841,841l0 420c0,78 62,141 140,141l1542 0c77,0 140,-63 140,-141 0,-77 -63,-140 -140,-140zm0 0z"/>
   <path class="fil0" d="M2243 1121c0,-309 -251,-560 -561,-560 -310,0 -561,251 -561,560 0,310 251,561 561,561 310,0 561,-251 561,-561zm-561 281c-155,0 -280,-126 -280,-281 0,-155 125,-280 280,-280 155,0 280,125 280,280 0,155 -125,281 -280,281zm0 0z"/>
   <path class="fil0" d="M6222 2009c71,-31 148,-47 225,-47l561 0c310,0 561,251 561,561l0 280 -1402 0c-77,0 -140,63 -140,140 0,78 63,141 140,141l1542 0c77,0 140,-63 140,-141l0 -420c0,-464 -377,-841 -841,-841l-561 0c-116,0 -232,24 -338,71 -71,31 -103,114 -72,185 31,71 114,103 185,71l0 0zm0 0z"/>
   <path class="fil0" d="M7288 1121c0,-309 -251,-560 -560,-560 -310,0 -561,251 -561,560 0,310 251,561 561,561 309,0 560,-251 560,-561zm-560 281c-155,0 -281,-126 -281,-281 0,-155 126,-280 281,-280 155,0 280,125 280,280 0,155 -125,281 -280,281zm0 0z"/>
   <path class="fil0" d="M8269 0l-3083 0c-77,0 -140,63 -140,140l0 1822 -1682 0 0 -1822c0,-77 -63,-140 -140,-140l-3084 0c-77,0 -140,63 -140,140l0 3364c0,77 63,140 140,140l895 0 521 1044c24,48 73,78 126,78 53,0 102,-30 125,-78l522 -1044 194 0 0 1822c0,78 63,140 140,140l895 0 521 1044c24,48 73,78 126,78 53,0 102,-30 125,-78l522 -1044 895 0c77,0 140,-62 140,-140l0 -1822 193 0 522 1044c24,48 73,78 126,78 53,0 101,-30 125,-78l522 -1044 894 0c78,0 141,-63 141,-140l0 -3364c0,-77 -63,-140 -141,-140l0 0zm-6026 3364c-54,0 -102,30 -126,77l-435 871 -435 -871c-23,-47 -72,-77 -126,-77l-841 0 0 -3084 2804 0 0 1682 -421 0c-77,0 -140,63 -140,140l0 1262 -280 0zm3363 1962l-841 0c-53,0 -102,30 -126,78l-434 870 -435 -870c-24,-48 -72,-78 -126,-78l-841 0 0 -3083 2803 0 0 3083zm2523 -1962l-841 0c-53,0 -102,30 -126,77l-434 871 -435 -871c-24,-47 -73,-77 -126,-77l-280 0 0 -1262c0,-77 -63,-140 -140,-140l-421 0 0 -1682 2803 0 0 3084zm0 0z"/>
  </g>
 </g>
</svg>
