<svg height="480pt" viewBox="0 0 480 480" width="480pt" xmlns="http://www.w3.org/2000/svg"><path d="m472 400h-464c-4.417969 0-8 3.582031-8 8v64c0 4.417969 3.582031 8 8 8h464c4.417969 0 8-3.582031 8-8v-64c0-4.417969-3.582031-8-8-8zm-456 16h272v48h-272zm448 48h-160v-48h160zm0 0"/><path d="m424 448h16c4.417969 0 8-3.582031 8-8s-3.582031-8-8-8h-16c-4.417969 0-8 3.582031-8 8s3.582031 8 8 8zm0 0"/><path d="m376 448h16c4.417969 0 8-3.582031 8-8s-3.582031-8-8-8h-16c-4.417969 0-8 3.582031-8 8s3.582031 8 8 8zm0 0"/><path d="m328 448h16c4.417969 0 8-3.582031 8-8s-3.582031-8-8-8h-16c-4.417969 0-8 3.582031-8 8s3.582031 8 8 8zm0 0"/><path d="m256 208h-32c-26.5.027344-47.972656 21.5-48 48v24c0 4.417969 3.582031 8 8 8h112c4.417969 0 8-3.582031 8-8v-24c-.027344-26.5-21.5-47.972656-48-48zm32 64h-96v-16c0-17.671875 14.328125-32 32-32h32c17.671875 0 32 14.328125 32 32zm0 0"/><path d="m272 176c0-17.671875-14.328125-32-32-32s-32 14.328125-32 32 14.328125 32 32 32 32-14.328125 32-32zm-32 16c-8.835938 0-16-7.164062-16-16s7.164062-16 16-16 16 7.164062 16 16-7.164062 16-16 16zm0 0"/><path d="m128 160h-80v-16c0-17.671875 14.328125-32 32-32h32c4.277344-.007812 8.515625.847656 12.457031 2.511719 4.058594 1.683593 8.71875-.222657 10.433594-4.273438 1.710937-4.050781-.164063-8.722656-4.203125-10.460937-5.910156-2.503906-12.269531-3.789063-18.6875-3.777344h-32c-26.5.027344-47.972656 21.5-48 48v24c0 4.417969 3.582031 8 8 8h88c4.417969 0 8-3.582031 8-8s-3.582031-8-8-8zm0 0"/><path d="m128 64c0-17.671875-14.328125-32-32-32s-32 14.328125-32 32 14.328125 32 32 32 32-14.328125 32-32zm-32 16c-8.835938 0-16-7.164062-16-16s7.164062-16 16-16 16 7.164062 16 16-7.164062 16-16 16zm0 0"/><path d="m355.121094 114.695312c4.058594-1.785156 8.445312-2.703124 12.878906-2.695312h32c17.671875 0 32 14.328125 32 32v16h-80c-4.417969 0-8 3.582031-8 8s3.582031 8 8 8h88c4.417969 0 8-3.582031 8-8v-24c-.027344-26.5-21.5-47.972656-48-48h-32c-6.65625-.011719-13.242188 1.371094-19.335938 4.054688-4.042968 1.785156-5.875 6.507812-4.09375 10.550781 1.785157 4.042969 6.507813 5.875 10.550782 4.089843zm0 0"/><path d="m416 64c0-17.671875-14.328125-32-32-32s-32 14.328125-32 32 14.328125 32 32 32 32-14.328125 32-32zm-32 16c-8.835938 0-16-7.164062-16-16s7.164062-16 16-16 16 7.164062 16 16-7.164062 16-16 16zm0 0"/><path d="m472 0h-176c-4.417969 0-8 3.582031-8 8v104h-96v-104c0-4.417969-3.582031-8-8-8h-176c-4.417969 0-8 3.582031-8 8v192c0 4.417969 3.582031 8 8 8h51.054688l29.785156 59.574219c1.351562 2.71875 4.125 4.433593 7.160156 4.433593s5.808594-1.714843 7.160156-4.433593l29.785156-59.574219h11.054688v104c0 4.417969 3.582031 8 8 8h51.054688l29.785156 59.574219c1.351562 2.71875 4.125 4.433593 7.160156 4.433593s5.808594-1.714843 7.160156-4.433593l29.785156-59.574219h51.054688c4.417969 0 8-3.582031 8-8v-104h11.054688l29.785156 59.574219c1.351562 2.71875 4.125 4.433593 7.160156 4.433593s5.808594-1.714843 7.160156-4.433593l29.785156-59.574219h51.054688c4.417969 0 8-3.582031 8-8v-192c0-4.417969-3.582031-8-8-8zm-344 192c-3.03125 0-5.804688 1.710938-7.160156 4.425781l-24.839844 49.6875-24.800781-49.6875c-1.359375-2.726562-4.152344-4.441406-7.199219-4.425781h-48v-176h160v96h-24c-4.417969 0-8 3.582031-8 8v72zm192 112h-48c-3.046875-.015625-5.839844 1.699219-7.199219 4.425781l-24.800781 49.6875-24.800781-49.6875c-1.359375-2.726562-4.152344-4.441406-7.199219-4.425781h-48v-176h160zm144-112h-48c-3.046875-.015625-5.839844 1.699219-7.199219 4.425781l-24.800781 49.6875-24.800781-49.6875c-1.359375-2.726562-4.152344-4.441406-7.199219-4.425781h-16v-72c0-4.417969-3.582031-8-8-8h-24v-96h160zm0 0"/></svg>