<?xml version="1.0" encoding="UTF-8"?>
<!DOCTYPE svg PUBLIC "-//W3C//DTD SVG 1.1//EN" "http://www.w3.org/Graphics/SVG/1.1/DTD/svg11.dtd">
<!-- Creator: CorelDRAW X6 -->
<svg xmlns="http://www.w3.org/2000/svg" xml:space="preserve" width="2480px" height="1889px" version="1.1" style="shape-rendering:geometricPrecision; text-rendering:geometricPrecision; image-rendering:optimizeQuality; fill-rule:evenodd; clip-rule:evenodd"
viewBox="0 0 2480 1889"
 xmlns:xlink="http://www.w3.org/1999/xlink">
 <defs>
  <style type="text/css">
   <![CDATA[
    .fil0 {fill:#3EB0F7}
   ]]>
  </style>
 </defs>
 <g id="Слой_x0020_1">
  <metadata id="CorelCorpID_0Corel-Layer"/>
  <g id="_462837192">
   <g>
    <path class="fil0" d="M2262 0l-2044 0c-120,0 -218,98 -218,218l0 1453c0,120 97,218 218,218l2044 0c120,0 218,-97 218,-218l0 -1453c0,-120 -97,-218 -218,-218zm-30 145l-987 988 -996 -988 1983 0zm-2087 1496l0 -1394 700 694 -700 700zm103 103l700 -701 246 244c28,28 74,28 102,0l239 -240 697 697 -1984 0zm2087 -103l-697 -696 697 -697 0 1393z"/>
   </g>
  </g>
  <g id="_462841392">
  </g>
  <g id="_462837864">
  </g>
  <g id="_462837696">
  </g>
  <g id="_462838032">
  </g>
  <g id="_462838632">
  </g>
  <g id="_462838464">
  </g>
  <g id="_462838296">
  </g>
  <g id="_462838704">
  </g>
  <g id="_462838944">
  </g>
  <g id="_462839184">
  </g>
  <g id="_462839016">
  </g>
  <g id="_462839376">
  </g>
  <g id="_462839520">
  </g>
  <g id="_462835176">
  </g>
  <g id="_462835344">
  </g>
 </g>
</svg>
