<?xml version="1.0" encoding="UTF-8"?>
<!DOCTYPE svg PUBLIC "-//W3C//DTD SVG 1.1//EN" "http://www.w3.org/Graphics/SVG/1.1/DTD/svg11.dtd">
<!-- Creator: CorelDRAW X6 -->
<svg xmlns="http://www.w3.org/2000/svg" xml:space="preserve" width="1913px" height="1913px" version="1.1" style="shape-rendering:geometricPrecision; text-rendering:geometricPrecision; image-rendering:optimizeQuality; fill-rule:evenodd; clip-rule:evenodd"
viewBox="0 0 1913 1913"
 xmlns:xlink="http://www.w3.org/1999/xlink">
 <defs>
  <style type="text/css">
   <![CDATA[
    .fil0 {fill:#3EB0F7}
   ]]>
  </style>
 </defs>
 <g id="Слой_x0020_1">
  <metadata id="CorelCorpID_0Corel-Layer"/>
  <g id="_460740120">
   <g>
    <path class="fil0" d="M1913 956c0,-528 -428,-956 -957,-956 -528,0 -956,428 -956,956 0,529 428,957 956,957 529,0 957,-428 957,-957zm-1826 0c0,-480 389,-869 869,-869 481,0 870,389 870,869 0,481 -389,870 -870,870 -480,0 -869,-389 -869,-870z"/>
    <path class="fil0" d="M993 1509l0 -553 182 0 29 -182 -211 0 0 -92c0,-48 16,-93 84,-93l137 0 0 -183 -194 0c-164,0 -208,108 -208,257l0 110 -112 0 0 183 112 0 0 553 181 0 0 0z"/>
   </g>
  </g>
  <g id="_460739400">
  </g>
  <g id="_460739784">
  </g>
  <g id="_460739928">
  </g>
  <g id="_460745712">
  </g>
  <g id="_460745856">
  </g>
  <g id="_460746000">
  </g>
  <g id="_460746408">
  </g>
  <g id="_460746552">
  </g>
  <g id="_460733856">
  </g>
  <g id="_460743120">
  </g>
  <g id="_460729176">
  </g>
  <g id="_460734456">
  </g>
  <g id="_460743144">
  </g>
  <g id="_460743240">
  </g>
  <g id="_460733304">
  </g>
 </g>
</svg>
