<?xml version="1.0" encoding="UTF-8"?>
<!DOCTYPE svg PUBLIC "-//W3C//DTD SVG 1.1//EN" "http://www.w3.org/Graphics/SVG/1.1/DTD/svg11.dtd">
<!-- Creator: CorelDRAW X6 -->
<svg xmlns="http://www.w3.org/2000/svg" xml:space="preserve" width="48px" height="48px" version="1.1" style="shape-rendering:geometricPrecision; text-rendering:geometricPrecision; image-rendering:optimizeQuality; fill-rule:evenodd; clip-rule:evenodd"
viewBox="0 0 877 877"
 xmlns:xlink="http://www.w3.org/1999/xlink">
 <defs>
  <style type="text/css">
   <![CDATA[
    .fil0 {fill:#555555}
   ]]>
  </style>
 </defs>
 <g id="Слой_x0020_1">
  <metadata id="CorelCorpID_0Corel-Layer"/>
  <g id="_472669920">
   <path class="fil0" d="M849 99l0 28 -94 0 -152 -124c-2,-2 -6,-3 -9,-3l-438 0c-32,0 -57,25 -57,57 0,31 25,56 57,56l1 0c7,32 35,57 69,57l85 0 0 99c0,31 26,56 57,56 31,0 56,-25 56,-56l0 -80 64 -76 58 0 34 34 0 65 -71 0c-31,0 -56,26 -56,57 0,31 25,56 56,56l340 0 0 29 28 0 0 -255 -28 0zm-529 42l-94 0c-18,0 -34,-11 -39,-28l161 0 -28 28zm189 156c-15,0 -28,-13 -28,-28 0,-16 13,-29 28,-29l85 0c8,0 14,-6 14,-14l0 -85c0,-3 -1,-7 -4,-10l-42 -42c-3,-3 -7,-4 -10,-4l-71 0c-4,0 -8,2 -11,5l-71 85c-2,2 -3,6 -3,9l0 85c0,15 -13,28 -28,28 -16,0 -28,-13 -28,-28l0 -108 52 -52c4,-4 5,-10 3,-15 -2,-6 -7,-9 -13,-9l-226 0c-16,0 -29,-13 -29,-28 0,-16 13,-29 29,-29l433 0 152 124c2,2 5,4 9,4l99 0 0 141 -340 0zm0 0z"/>
   <path class="fil0" d="M439 439c15,0 28,12 28,28l28 0c0,-26 -18,-48 -42,-55l0 -30 -29 0 0 30c-24,7 -42,29 -42,55 0,31 25,56 57,56 15,0 28,13 28,29 0,15 -13,28 -28,28 -16,0 -29,-13 -29,-28l-28 0c0,26 18,48 42,54l0 31 29 0 0 -31c24,-6 42,-28 42,-54 0,-31 -25,-57 -56,-57 -16,0 -29,-13 -29,-28 0,-16 13,-28 29,-28zm0 0z"/>
   <path class="fil0" d="M439 340c-94,0 -170,76 -170,169 0,94 76,170 170,170 93,0 169,-76 169,-170 0,-93 -76,-169 -169,-169zm0 311c-78,0 -142,-64 -142,-142 0,-78 64,-141 142,-141 78,0 141,63 141,141 0,78 -63,142 -141,142zm0 0z"/>
   <path class="fil0" d="M297 736l-14 0 0 -99c0,-8 -6,-15 -14,-15l-255 0c-8,0 -14,7 -14,15l0 113c0,8 6,14 14,14l14 0 0 28 -14 0c-8,0 -14,7 -14,14l0 57c0,8 6,14 14,14l255 0c8,0 14,-6 14,-14l0 -43 14 0c8,0 14,-6 14,-14l0 -56c0,-8 -6,-14 -14,-14zm-269 0l0 -29 227 0 0 29 -227 0zm0 -85l227 0 0 28 -227 0 0 -28zm227 198l-227 0 0 -29 227 0 0 29zm28 -57l-226 0 0 -28 226 0 0 28zm0 0z"/>
   <path class="fil0" d="M863 622l-255 0c-8,0 -14,7 -14,15l0 99 -14 0c-8,0 -14,6 -14,14l0 56c0,8 6,14 14,14l14 0 0 43c0,8 6,14 14,14l255 0c8,0 14,-6 14,-14l0 -57c0,-7 -6,-14 -14,-14l-14 0 0 -28 14 0c8,0 14,-6 14,-14l0 -113c0,-8 -6,-15 -14,-15zm-241 29l227 0 0 28 -227 0 0 -28zm227 198l-227 0 0 -29 227 0 0 29zm-29 -57l-226 0 0 -28 226 0 0 28zm29 -56l-227 0 0 -29 227 0 0 29zm0 0z"/>
  </g>
 </g>
</svg>
