<svg height="496pt" viewBox="0 0 496 496" width="496pt" xmlns="http://www.w3.org/2000/svg"><path d="m480 56v16h-53.144531l-85.792969-70.191406c-1.421875-1.167969-3.214844-1.808594-5.0625-1.808594h-248c-17.648438 0-32 14.351562-32 32s14.351562 32 32 32h.808594c3.71875 18.230469 19.871094 32 39.191406 32h48v56c0 17.648438 14.351562 32 32 32s32-14.351562 32-32v-45.105469l35.742188-42.894531h32.945312l19.3125 19.3125v36.6875h-40c-17.648438 0-32 14.351562-32 32s14.351562 32 32 32h192v16h16v-144zm-299.3125 24h-52.6875c-10.414062 0-19.214844-6.710938-22.527344-16h91.214844zm107.3125 88c-8.824219 0-16-7.175781-16-16s7.175781-16 16-16h48c4.414062 0 8-3.585938 8-8v-48c0-2.121094-.839844-4.160156-2.34375-5.65625l-24-24c-1.496094-1.503906-3.535156-2.34375-5.65625-2.34375h-40c-2.375 0-4.625 1.054688-6.144531 2.878906l-40 48c-1.199219 1.441406-1.855469 3.25-1.855469 5.121094v48c0 8.824219-7.175781 16-16 16s-16-7.175781-16-16v-60.6875l29.65625-29.65625c2.289062-2.289062 2.976562-5.726562 1.734375-8.71875-1.238281-2.984375-4.160156-4.9375-7.390625-4.9375h-128c-8.824219 0-16-7.175781-16-16s7.175781-16 16-16h245.144531l85.792969 70.191406c1.421875 1.167969 3.214844 1.808594 5.0625 1.808594h56v80zm0 0"/><path d="m248 248c8.824219 0 16 7.175781 16 16h16c0-14.863281-10.238281-27.289062-24-30.863281v-17.136719h-16v17.136719c-13.761719 3.574219-24 16-24 30.863281 0 17.648438 14.351562 32 32 32 8.824219 0 16 7.175781 16 16s-7.175781 16-16 16-16-7.175781-16-16h-16c0 14.863281 10.238281 27.289062 24 30.863281v17.136719h16v-17.136719c13.761719-3.574219 24-16 24-30.863281 0-17.648438-14.351562-32-32-32-8.824219 0-16-7.175781-16-16s7.175781-16 16-16zm0 0"/><path d="m248 192c-52.9375 0-96 43.0625-96 96s43.0625 96 96 96 96-43.0625 96-96-43.0625-96-96-96zm0 176c-44.113281 0-80-35.886719-80-80s35.886719-80 80-80 80 35.886719 80 80-35.886719 80-80 80zm0 0"/><path d="m168 416h-8v-56c0-4.414062-3.585938-8-8-8h-144c-4.414062 0-8 3.585938-8 8v64c0 4.414062 3.585938 8 8 8h8v16h-8c-4.414062 0-8 3.585938-8 8v32c0 4.414062 3.585938 8 8 8h144c4.414062 0 8-3.585938 8-8v-24h8c4.414062 0 8-3.585938 8-8v-32c0-4.414062-3.585938-8-8-8zm-152 0v-16h128v16zm0-48h128v16h-128zm128 112h-128v-16h128zm16-32h-128v-16h128zm0 0"/><path d="m488 352h-144c-4.414062 0-8 3.585938-8 8v56h-8c-4.414062 0-8 3.585938-8 8v32c0 4.414062 3.585938 8 8 8h8v24c0 4.414062 3.585938 8 8 8h144c4.414062 0 8-3.585938 8-8v-32c0-4.414062-3.585938-8-8-8h-8v-16h8c4.414062 0 8-3.585938 8-8v-64c0-4.414062-3.585938-8-8-8zm-136 16h128v16h-128zm128 112h-128v-16h128zm-16-32h-128v-16h128zm16-32h-128v-16h128zm0 0"/></svg>