<?xml version="1.0" encoding="UTF-8"?>
<!DOCTYPE svg PUBLIC "-//W3C//DTD SVG 1.1//EN" "http://www.w3.org/Graphics/SVG/1.1/DTD/svg11.dtd">
<!-- Creator: CorelDRAW X6 -->
<svg xmlns="http://www.w3.org/2000/svg" xml:space="preserve" width="1913px" height="1913px" version="1.1" style="shape-rendering:geometricPrecision; text-rendering:geometricPrecision; image-rendering:optimizeQuality; fill-rule:evenodd; clip-rule:evenodd"
viewBox="0 0 1913 1913"
 xmlns:xlink="http://www.w3.org/1999/xlink">
 <defs>
  <style type="text/css">
   <![CDATA[
    .fil0 {fill:#3EB0F7}
   ]]>
  </style>
 </defs>
 <g id="Слой_x0020_1">
  <metadata id="CorelCorpID_0Corel-Layer"/>
  <g id="_464173312">
   <g>
    <path class="fil0" d="M1091 1257c0,-93 -54,-140 -114,-190l-49 -38c-15,-12 -35,-29 -35,-59 0,-30 20,-49 38,-66 57,-45 114,-93 114,-193 0,-104 -65,-158 -96,-184l0 0 84 0 87 -49 -280 0c-74,0 -166,11 -244,75 -58,50 -87,120 -87,182 0,106 82,214 226,214 14,0 29,-2 44,-3 -7,16 -14,30 -14,53 0,42 22,68 41,92 -61,5 -175,11 -260,63 -80,48 -104,117 -104,166 0,100 95,194 292,194 234,0 357,-129 357,-257zm-292 -346c-117,0 -170,-151 -170,-242 0,-36 7,-72 30,-101 22,-27 60,-45 95,-45 113,0 171,152 171,250 0,25 -2,68 -34,100 -21,21 -58,38 -92,38zm1 546c-145,0 -239,-69 -239,-166 0,-96 87,-129 117,-140 57,-19 131,-21 143,-21 13,0 20,0 31,1 103,73 148,110 148,179 0,85 -69,147 -200,147z"/>
    <polygon class="fil0" points="1104,993 1251,993 1251,1140 1324,1140 1324,993 1472,993 1472,920 1324,920 1324,773 1251,773 1251,920 1104,920 "/>
    <path class="fil0" d="M1913 956c0,-528 -428,-956 -957,-956 -528,0 -956,428 -956,956 0,529 428,957 956,957 529,0 957,-428 957,-957zm-1826 0c0,-480 389,-869 869,-869 481,0 870,389 870,869 0,481 -389,870 -870,870 -480,0 -869,-389 -869,-870z"/>
   </g>
  </g>
  <g id="_464141848">
  </g>
  <g id="_464146504">
  </g>
  <g id="_464141704">
  </g>
  <g id="_465742944">
  </g>
  <g id="_465742800">
  </g>
  <g id="_465742656">
  </g>
  <g id="_465742488">
  </g>
  <g id="_465742248">
  </g>
  <g id="_465742128">
  </g>
  <g id="_465741960">
  </g>
  <g id="_465741648">
  </g>
  <g id="_465741624">
  </g>
  <g id="_465741432">
  </g>
  <g id="_465741240">
  </g>
  <g id="_465741144">
  </g>
 </g>
</svg>
