<?xml version="1.0" encoding="UTF-8"?>
<!DOCTYPE svg PUBLIC "-//W3C//DTD SVG 1.1//EN" "http://www.w3.org/Graphics/SVG/1.1/DTD/svg11.dtd">
<!-- Creator: CorelDRAW X6 -->
<svg xmlns="http://www.w3.org/2000/svg" xml:space="preserve" width="48px" height="47x" version="1.1" style="shape-rendering:geometricPrecision; text-rendering:geometricPrecision; image-rendering:optimizeQuality; fill-rule:evenodd; clip-rule:evenodd"
viewBox="0 0 1270 1250"
 xmlns:xlink="http://www.w3.org/1999/xlink">
 <defs>
  <style type="text/css">
   <![CDATA[
    .fil0 {fill:#555555}
   ]]>
  </style>
 </defs>
 <g id="Слой_x0020_1">
  <metadata id="CorelCorpID_0Corel-Layer"/>
  <g id="_335068920">
   <g>
    <path class="fil0" d="M1079 541c-9,-25 -32,-41 -59,-41 -26,0 -50,16 -58,41l-129 0 0 -83 83 0c12,0 21,-9 21,-21 0,0 0,0 0,0l0 -87c32,-11 49,-47 38,-80 -12,-32 -47,-49 -80,-38 -32,12 -49,48 -38,80 6,18 20,32 38,38l0 66 -62 0 0 -41c0,-12 -10,-21 -21,-21 0,0 0,0 0,0l-42 0 0 -108c33,-11 50,-47 38,-80 -11,-32 -47,-49 -79,-38 -33,12 -50,47 -38,80 6,18 20,32 38,38l0 108 -84 0 0 -332c0,-12 -9,-21 -20,-21 0,0 0,0 0,0 -257,0 -458,186 -458,423 0,113 44,262 116,390 13,23 30,47 48,72 38,54 80,115 85,167 -16,12 -26,30 -25,50 0,14 4,27 13,38 -12,13 -19,29 -19,46 0,35 28,63 63,63l354 0c34,0 62,-29 62,-63 0,-1 0,-1 0,-1 0,-17 -7,-33 -19,-45 9,-11 14,-25 14,-40 0,-33 -27,-59 -60,-59 -1,0 -2,0 -3,0l-151 0 0 -397 42 0 0 63c0,11 9,21 21,21 0,0 0,0 0,0l62 0 0 24c-32,12 -49,48 -38,80 12,33 47,50 80,38 32,-11 50,-47 38,-80 -6,-17 -20,-31 -38,-38l0 -45c0,-12 -9,-21 -21,-21 0,0 0,0 0,0l-62 0 0 -42 83 0c11,0 21,-9 21,-20 0,0 0,0 0,0l0 -42 129 0c11,32 47,49 79,38 33,-12 50,-47 38,-80zm-163 -270c12,0 21,9 21,20 0,12 -9,21 -21,21 -11,0 -21,-9 -21,-21 0,-11 10,-20 21,-20zm-551 591c-17,-24 -33,-48 -45,-69 -68,-120 -112,-265 -112,-369 0,-208 172,-372 396,-381l0 145c-6,1 -11,1 -17,2 -9,1 -16,8 -18,16l-7 30c-5,2 -10,3 -15,5l-21 -23c-6,-7 -15,-9 -24,-6 -23,10 -45,23 -65,39 -7,5 -10,14 -7,23l9 29c-4,3 -8,7 -11,11l-29 -9c-9,-3 -18,0 -24,7 -15,20 -28,42 -38,65 -3,9 -1,18 5,24l24 21c-2,5 -3,10 -5,15l-32 7c-10,2 -17,10 -17,20l0 71c0,10 7,19 17,21l32 6c2,5 3,10 5,16l-24 20c-6,6 -8,16 -5,24 10,23 23,45 38,65 6,8 15,10 24,8l29 -10c3,4 7,8 11,12l-9 29c-3,8 0,17 7,23 20,15 42,28 65,38 9,4 18,1 24,-5l21 -23c5,1 10,3 15,4l7 30c2,9 9,15 18,16 6,1 11,2 17,2l0 231 -148 0c-8,-62 -52,-124 -91,-180zm72 -362c0,95 72,175 167,186l0 71 -4 -16c-1,-8 -8,-15 -16,-16 -13,-2 -25,-6 -37,-10 -2,-1 -4,-1 -7,-1 -6,0 -11,2 -15,7l-20 22c-11,-6 -21,-12 -31,-19l9 -27c3,-8 0,-17 -6,-23 -10,-8 -19,-17 -27,-26 -6,-7 -14,-9 -22,-7l-28 9c-7,-10 -13,-20 -18,-31l22 -20c6,-5 8,-14 5,-22 -4,-12 -7,-24 -10,-36 -1,-9 -8,-15 -16,-17l-29 -6 0 -37 29 -6c8,-1 15,-8 16,-16 3,-13 6,-25 10,-37 3,-8 1,-16 -5,-22l-22 -20c5,-11 11,-21 18,-31l28 9c8,3 16,0 22,-6 8,-10 17,-19 27,-27 6,-5 9,-14 6,-22l-9 -28c10,-7 20,-13 31,-18l20 22c5,6 14,8 22,5 12,-4 24,-7 37,-9 8,-2 15,-8 16,-17l4 -16 0 72c-95,10 -167,90 -167,186zm167 -144l0 288c-80,-12 -135,-85 -124,-165 9,-64 60,-114 124,-123zm218 831c0,12 -9,21 -20,21l-354 0c-12,0 -21,-10 -21,-21 0,-1 0,-1 0,-1 0,-11 9,-21 21,-21l354 0c11,0 21,10 20,22 0,0 0,0 0,0zm-26 -104c11,-1 20,7 21,18 0,0 0,1 0,2 0,11 -9,21 -21,21l-343 0c-12,-1 -21,-10 -21,-22 0,0 0,-1 0,-1 1,-10 9,-18 20,-18 0,0 1,0 1,0l343 0zm-5 -292c12,0 21,9 21,21 0,11 -9,21 -21,21 -11,0 -21,-10 -21,-21 0,-12 10,-21 21,-21zm-41 -624c11,0 20,9 20,20 0,12 -9,21 -20,21 -12,0 -21,-9 -21,-21 0,-11 9,-20 21,-20zm41 437l-146 0 0 -208 146 0 0 208zm229 -21c-11,0 -21,-9 -21,-21 0,-11 10,-21 21,-21 12,0 21,10 21,21 0,12 -9,21 -21,21z"/>
   </g>
  </g>
  <g id="_335070096">
   <g>
    <path class="fil0" d="M825 952c-7,14 -13,27 -19,41l39 15c5,-12 10,-24 17,-35l-37 -21z"/>
   </g>
  </g>
  <g id="_335068200">
   <g>
    <path class="fil0" d="M872 879c-8,12 -16,24 -24,36l35 22c8,-11 15,-23 23,-34l-34 -24z"/>
   </g>
  </g>
  <g id="_335067936">
   <g>
    <path class="fil0" d="M920 810c-7,11 -15,22 -23,34l34 24c8,-12 16,-24 24,-36l-35 -22z"/>
   </g>
  </g>
  <g id="_335067672">
   <g>
    <path class="fil0" d="M959 737c-6,13 -13,25 -19,37l37 20c6,-13 13,-26 19,-39l-37 -18z"/>
   </g>
  </g>
  <g id="_335067408">
   <g>
    <path class="fil0" d="M991 661c-5,13 -10,26 -15,38l38 17c6,-14 11,-27 16,-41l-39 -14z"/>
   </g>
  </g>
  <g id="_335067144">
   <g>
    <path class="fil0" d="M1083 420l-42 0 0 4c0,12 -1,24 -2,37l42 3c1,-14 2,-27 2,-40l0 -4z"/>
   </g>
  </g>
  <g id="_335066880">
   <g>
    <path class="fil0" d="M1072 331l-41 10c4,13 6,26 7,39l42 -5c-2,-14 -5,-29 -8,-44z"/>
   </g>
  </g>
  <g id="_335066592">
   <g>
    <path class="fil0" d="M1042 247l-37 18c5,12 11,25 15,37l39 -14c-5,-14 -10,-27 -17,-41z"/>
   </g>
  </g>
  <g id="_335066328">
   <g>
    <path class="fil0" d="M994 172l-32 26c8,10 16,21 23,32l35 -22c-8,-12 -16,-25 -26,-36z"/>
   </g>
  </g>
  <g id="_335066064">
   <g>
    <path class="fil0" d="M932 108l-26 32c10,9 20,18 29,28l30 -30c-11,-10 -22,-20 -33,-30z"/>
   </g>
  </g>
  <g id="_335065800">
   <g>
    <path class="fil0" d="M858 59l-19 36c11,7 23,14 34,21l23 -34c-12,-9 -25,-16 -38,-23z"/>
   </g>
  </g>
  <g id="_335065536">
   <g>
    <path class="fil0" d="M777 24l-13 40c13,4 26,9 38,14l16 -39c-13,-5 -27,-10 -41,-15z"/>
   </g>
  </g>
  <g id="_335065272">
   <g>
    <path class="fil0" d="M690 5l-5 41c13,2 27,4 40,7l9 -40c-14,-4 -29,-6 -44,-8z"/>
   </g>
  </g>
  <g id="_335064984">
   <g>
    <rect class="fil0" x="42" y="1124" width="41.64" height="41.64"/>
   </g>
  </g>
  <g id="_335064720">
   <g>
    <rect class="fil0" x="42" y="1208" width="41.64" height="41.64"/>
   </g>
  </g>
  <g id="_335064456">
   <g>
    <rect class="fil0" x="83" y="1166" width="41.64" height="41.64"/>
   </g>
  </g>
  <g id="_335064192">
   <g>
    <rect class="fil0" y="1166" width="41.64" height="41.64"/>
   </g>
  </g>
  <g id="_335063928">
   <g>
    <rect class="fil0" x="1187" width="41.64" height="41.64"/>
   </g>
  </g>
  <g id="_335063664">
   <g>
    <rect class="fil0" x="1187" y="83" width="41.64" height="41.64"/>
   </g>
  </g>
  <g id="_335063400">
   <g>
    <rect class="fil0" x="1228" y="42" width="41.64" height="41.64"/>
   </g>
  </g>
  <g id="_335063136">
   <g>
    <rect class="fil0" x="1145" y="42" width="41.64" height="41.64"/>
   </g>
  </g>
  <g id="_335062872">
  </g>
  <g id="_335062704">
  </g>
  <g id="_335062536">
  </g>
  <g id="_335062368">
  </g>
  <g id="_335062200">
  </g>
  <g id="_335062032">
  </g>
  <g id="_335061864">
  </g>
  <g id="_335061696">
  </g>
  <g id="_335061528">
  </g>
  <g id="_335061360">
  </g>
  <g id="_335061168">
  </g>
  <g id="_335598160">
  </g>
  <g id="_335598328">
  </g>
  <g id="_335598496">
  </g>
  <g id="_335598664">
  </g>
 </g>
</svg>
