<?xml version="1.0" encoding="UTF-8"?>
<!DOCTYPE svg PUBLIC "-//W3C//DTD SVG 1.1//EN" "http://www.w3.org/Graphics/SVG/1.1/DTD/svg11.dtd">
<!-- Creator: CorelDRAW X6 -->
<svg xmlns="http://www.w3.org/2000/svg" xml:space="preserve" width="2480px" height="2480px" version="1.1" style="shape-rendering:geometricPrecision; text-rendering:geometricPrecision; image-rendering:optimizeQuality; fill-rule:evenodd; clip-rule:evenodd"
viewBox="0 0 2480 2480"
 xmlns:xlink="http://www.w3.org/1999/xlink">
 <defs>
  <style type="text/css">
   <![CDATA[
    .fil0 {fill:#3EB0F7}
   ]]>
  </style>
 </defs>
 <g id="Слой_x0020_1">
  <metadata id="CorelCorpID_0Corel-Layer"/>
  <g id="_468255680">
   <path class="fil0" d="M1240 0c-684,0 -1240,556 -1240,1240 0,684 556,1240 1240,1240 684,0 1240,-556 1240,-1240 0,-684 -556,-1240 -1240,-1240zm0 2338c-606,0 -1098,-492 -1098,-1098 0,-606 492,-1098 1098,-1098 606,0 1098,492 1098,1098 0,606 -492,1098 -1098,1098z"/>
   <path class="fil0" d="M1692 633l-904 0c-82,0 -149,67 -149,150l0 914c0,83 67,150 149,150l904 0c82,0 149,-67 149,-150l0 -914c0,-83 -67,-150 -149,-150zm7 1064c0,4 -3,8 -7,8l-904 0c-4,0 -7,-4 -7,-8l0 -914c0,-4 3,-8 7,-8l904 0c4,0 7,4 7,8l0 914z"/>
   <rect class="fil0" x="1447" y="881" width="162" height="149"/>
   <circle class="fil0" cx="1240" cy="1300" r="160"/>
   <path class="fil0" d="M1496 1299c0,141 -115,256 -256,256 -141,0 -256,-115 -256,-256l1 -114 -114 0 0 424 738 0 0 -424 -113 0 0 114z"/>
  </g>
  <g id="_468256928">
  </g>
  <g id="_468257096">
  </g>
  <g id="_468257264">
  </g>
  <g id="_468257432">
  </g>
  <g id="_468257600">
  </g>
  <g id="_462703408">
  </g>
  <g id="_462679048">
  </g>
  <g id="_462679960">
  </g>
  <g id="_462679768">
  </g>
  <g id="_468116864">
  </g>
  <g id="_468116696">
  </g>
  <g id="_468116528">
  </g>
  <g id="_468116360">
  </g>
  <g id="_468116192">
  </g>
  <g id="_468116024">
  </g>
 </g>
</svg>
