<?xml version="1.0" encoding="UTF-8"?>
<!DOCTYPE svg PUBLIC "-//W3C//DTD SVG 1.1//EN" "http://www.w3.org/Graphics/SVG/1.1/DTD/svg11.dtd">
<!-- Creator: CorelDRAW X6 -->
<svg xmlns="http://www.w3.org/2000/svg" xml:space="preserve" width="83px" height="75px" version="1.1" style="shape-rendering:geometricPrecision; text-rendering:geometricPrecision; image-rendering:optimizeQuality; fill-rule:evenodd; clip-rule:evenodd"
viewBox="0 0 83 75"
 xmlns:xlink="http://www.w3.org/1999/xlink">
 <defs>
  <style type="text/css">
   <![CDATA[
    .fil0 {fill:#d1d1d1}
   ]]>
  </style>
 </defs>
 <g id="Слой_x0020_1">
  <metadata id="CorelCorpID_0Corel-Layer"/>
  <g id="_349302672">
   <g>
    <g>
     <path class="fil0" d="M79 0l-75 0c-2,0 -4,2 -4,4l0 53c0,2 2,4 4,4l32 0 0 5 -11 0c-2,0 -4,2 -4,5l0 2c0,1 0,2 1,2l39 0c1,0 1,-1 1,-2l0 -2c0,-3 -2,-5 -4,-5l-10 0 0 -5 31 0c2,0 4,-2 4,-4l0 -53c0,-2 -2,-4 -4,-4zm-21 69c1,0 1,1 1,2l0 1 -35 0 0 -1c0,-1 0,-2 1,-2l33 0zm-19 -3l0 -5 7 0 0 5 -7 0zm41 -9c0,0 0,1 -1,1l-75 0c-1,0 -1,-1 -1,-1l0 -4 77 0 0 4zm0 -7l-77 0 0 -39 77 0 0 39zm0 -42l-77 0 0 -4c0,-1 0,-1 1,-1l75 0c1,0 1,0 1,1l0 4z"/>
     <path class="fil0" d="M7 17l3 0 4 18c0,1 1,1 1,1l17 0c0,0 1,0 1,-1l3 -14c0,-1 0,-1 -1,-2 0,0 0,0 0,0l-21 0 -2 -4c0,-1 0,-1 -1,-1l-4 0c-1,0 -1,0 -1,1 0,1 0,2 1,2zm26 5l-2 11 -15 0 -2 -11 19 0z"/>
     <path class="fil0" d="M18 37c-2,0 -4,2 -4,5 0,2 2,4 4,4 2,0 4,-2 4,-4 0,-3 -2,-5 -4,-5zm0 6c-1,0 -1,-1 -1,-1 0,-1 0,-2 1,-2 1,0 1,1 1,2 0,0 0,1 -1,1z"/>
     <path class="fil0" d="M30 37c-2,0 -4,2 -4,5 0,2 2,4 4,4 3,0 5,-2 5,-4 0,-3 -2,-5 -5,-5zm0 6c0,0 -1,-1 -1,-1 0,-1 1,-2 1,-2 1,0 2,1 2,2 0,0 -1,1 -2,1z"/>
     <path class="fil0" d="M43 21l25 0c1,0 1,-1 1,-2 0,0 0,-1 -1,-1l-25 0c-1,0 -1,1 -1,1 0,1 0,2 1,2z"/>
     <path class="fil0" d="M73 21l3 0c1,0 1,-1 1,-2 0,0 0,-1 -1,-1l-3 0c0,0 -1,1 -1,1 0,1 1,2 1,2z"/>
     <path class="fil0" d="M43 26l25 0c1,0 1,0 1,-1 0,-1 0,-1 -1,-1l-25 0c-1,0 -1,0 -1,1 0,1 0,1 1,1z"/>
     <path class="fil0" d="M73 26l3 0c1,0 1,0 1,-1 0,-1 0,-1 -1,-1l-3 0c0,0 -1,0 -1,1 0,1 1,1 1,1z"/>
     <path class="fil0" d="M43 32l25 0c1,0 1,-1 1,-2 0,0 0,-1 -1,-1l-25 0c-1,0 -1,1 -1,1 0,1 0,2 1,2z"/>
     <path class="fil0" d="M73 32l3 0c1,0 1,-1 1,-2 0,0 0,-1 -1,-1l-3 0c0,0 -1,1 -1,1 0,1 1,2 1,2z"/>
     <path class="fil0" d="M43 37l25 0c1,0 1,0 1,-1 0,-1 0,-1 -1,-1l-25 0c-1,0 -1,0 -1,1 0,1 0,1 1,1z"/>
     <path class="fil0" d="M73 37l3 0c1,0 1,0 1,-1 0,-1 0,-1 -1,-1l-3 0c0,0 -1,0 -1,1 0,1 1,1 1,1z"/>
    </g>
   </g>
  </g>
  <g id="_349306560">
  </g>
  <g id="_349306392">
  </g>
  <g id="_349306224">
  </g>
  <g id="_349306056">
  </g>
  <g id="_349305888">
  </g>
  <g id="_349305720">
  </g>
  <g id="_349305552">
  </g>
  <g id="_349305384">
  </g>
  <g id="_349305216">
  </g>
  <g id="_349305048">
  </g>
  <g id="_349304880">
  </g>
  <g id="_349304712">
  </g>
  <g id="_349304544">
  </g>
  <g id="_349304376">
  </g>
  <g id="_349311024">
  </g>
 </g>
</svg>
