<?xml version="1.0" encoding="UTF-8"?>
<!DOCTYPE svg PUBLIC "-//W3C//DTD SVG 1.1//EN" "http://www.w3.org/Graphics/SVG/1.1/DTD/svg11.dtd">
<!-- Creator: CorelDRAW X6 -->
<svg xmlns="http://www.w3.org/2000/svg" xml:space="preserve" width="50px" height="48px" version="1.1" style="shape-rendering:geometricPrecision; text-rendering:geometricPrecision; image-rendering:optimizeQuality; fill-rule:evenodd; clip-rule:evenodd"
viewBox="0 0 4605 4145"
 xmlns:xlink="http://www.w3.org/1999/xlink">
 <defs>
  <style type="text/css">
   <![CDATA[
    .fil0 {fill:#555555}
   ]]>
  </style>
 </defs>
 <g id="Слой_x0020_1">
  <metadata id="CorelCorpID_0Corel-Layer"/>
  <g id="_474090792">
   <g>
    <g>
     <g>
      <path class="fil0" d="M4375 0l-4145 0c-127,0 -230,103 -230,230l0 2917c0,127 103,230 230,230l1766 0 0 307 -614 0c-128,0 -231,103 -231,230l0 154c0,42 35,77 77,77l2149 0c43,0 77,-35 77,-77l0 -154c0,-127 -103,-230 -230,-230l-538 0 0 -307 1689 0c127,0 230,-103 230,-230l0 -2917c0,-127 -103,-230 -230,-230zm-1151 3838c42,0 76,34 76,76l0 77 -1995 0 0 -77c0,-42 34,-76 77,-76l1842 0zm-1075 -154l0 -307 384 0 0 307 -384 0zm2303 -537c0,42 -35,77 -77,77l-4145 0c-42,0 -76,-35 -76,-77l0 -230 4298 0 0 230zm0 -384l-4298 0 0 -2143 4298 0 0 2143zm0 -2296l-4298 0 0 -237c0,-42 34,-76 76,-76l4145 0c42,0 77,34 77,76l0 237z"/>
      <path class="fil0" d="M384 921l170 0 215 1013c7,36 39,62 75,62l921 0c37,0 68,-26 76,-62l153 -767c9,-42 -18,-82 -60,-91 -5,-1 -10,-1 -15,-1l-1168 0 -63 -249c-8,-34 -39,-58 -74,-58l-230 0c-43,0 -77,34 -77,76 0,43 34,77 77,77zm1441 307l-123 614 -795 0 -123 -614 1041 0z"/>
      <path class="fil0" d="M998 2072c-127,0 -230,103 -230,231 0,127 103,230 230,230 127,0 230,-103 230,-230 0,-128 -103,-231 -230,-231zm0 307c-43,0 -77,-34 -77,-76 0,-43 34,-77 77,-77 42,0 77,34 77,77 0,42 -35,76 -77,76z"/>
      <path class="fil0" d="M1689 2072c-128,0 -231,103 -231,231 0,127 103,230 231,230 127,0 230,-103 230,-230 0,-128 -103,-231 -230,-231zm0 307c-43,0 -77,-34 -77,-76 0,-43 34,-77 77,-77 42,0 76,34 76,77 0,42 -34,76 -76,76z"/>
      <path class="fil0" d="M2379 1151l1382 0c42,0 77,-34 77,-76 0,-43 -35,-77 -77,-77l-1382 0c-42,0 -76,34 -76,77 0,42 34,76 76,76z"/>
      <path class="fil0" d="M4068 1151l153 0c43,0 77,-34 77,-76 0,-43 -34,-77 -77,-77l-153 0c-42,0 -77,34 -77,77 0,42 35,76 77,76z"/>
      <path class="fil0" d="M2379 1458l1382 0c42,0 77,-34 77,-76 0,-43 -35,-77 -77,-77l-1382 0c-42,0 -76,34 -76,77 0,42 34,76 76,76z"/>
      <path class="fil0" d="M4068 1458l153 0c43,0 77,-34 77,-76 0,-43 -34,-77 -77,-77l-153 0c-42,0 -77,34 -77,77 0,42 35,76 77,76z"/>
      <path class="fil0" d="M2379 1765l1382 0c42,0 77,-34 77,-76 0,-43 -35,-77 -77,-77l-1382 0c-42,0 -76,34 -76,77 0,42 34,76 76,76z"/>
      <path class="fil0" d="M4068 1765l153 0c43,0 77,-34 77,-76 0,-43 -34,-77 -77,-77l-153 0c-42,0 -77,34 -77,77 0,42 35,76 77,76z"/>
      <path class="fil0" d="M2379 2072l1382 0c42,0 77,-34 77,-76 0,-43 -35,-77 -77,-77l-1382 0c-42,0 -76,34 -76,77 0,42 34,76 76,76z"/>
      <path class="fil0" d="M4068 2072l153 0c43,0 77,-34 77,-76 0,-43 -34,-77 -77,-77l-153 0c-42,0 -77,34 -77,77 0,42 35,76 77,76z"/>
     </g>
    </g>
   </g>
   <g>
   </g>
   <g>
   </g>
   <g>
   </g>
   <g>
   </g>
   <g>
   </g>
   <g>
   </g>
   <g>
   </g>
   <g>
   </g>
   <g>
   </g>
   <g>
   </g>
   <g>
   </g>
   <g>
   </g>
   <g>
   </g>
   <g>
   </g>
   <g>
   </g>
  </g>
 </g>
</svg>
