<?xml version="1.0" encoding="UTF-8"?>
<!DOCTYPE svg PUBLIC "-//W3C//DTD SVG 1.1//EN" "http://www.w3.org/Graphics/SVG/1.1/DTD/svg11.dtd">
<!-- Creator: CorelDRAW X6 -->
<svg xmlns="http://www.w3.org/2000/svg" xml:space="preserve" width="1744px" height="2480px" version="1.1" style="shape-rendering:geometricPrecision; text-rendering:geometricPrecision; image-rendering:optimizeQuality; fill-rule:evenodd; clip-rule:evenodd"
viewBox="0 0 1948 2770"
 xmlns:xlink="http://www.w3.org/1999/xlink">
 <defs>
  <style type="text/css">
   <![CDATA[
    .fil0 {fill:#3EB0F7}
   ]]>
  </style>
 </defs>
 <g id="Слой_x0020_1">
  <metadata id="CorelCorpID_0Corel-Layer"/>
  <g id="_462825576">
   <g>
    <path class="fil0" d="M974 0c-537,0 -974,437 -974,974 0,181 50,358 145,512l773 1246c15,24 41,38 69,38 1,0 1,0 1,0 28,0 54,-15 69,-39l753 -1258c90,-151 138,-323 138,-499 0,-537 -437,-974 -974,-974zm697 1389l-685 1144 -703 -1133c-79,-127 -122,-275 -122,-426 0,-448 365,-813 813,-813 447,0 812,365 812,813 0,147 -40,290 -115,415z"/>
   </g>
  </g>
  <g id="_462826080">
   <g>
    <path class="fil0" d="M974 487c-269,0 -487,218 -487,487 0,267 215,487 487,487 275,0 487,-223 487,-487 0,-269 -219,-487 -487,-487zm0 813c-180,0 -326,-147 -326,-326 0,-179 147,-326 326,-326 179,0 325,147 325,326 0,177 -142,326 -325,326z"/>
   </g>
  </g>
  <g id="_462826392">
  </g>
  <g id="_462826584">
  </g>
  <g id="_462826776">
  </g>
  <g id="_462826968">
  </g>
  <g id="_462827160">
  </g>
  <g id="_462827352">
  </g>
  <g id="_462827544">
  </g>
  <g id="_462827736">
  </g>
  <g id="_462827928">
  </g>
  <g id="_462828120">
  </g>
  <g id="_462828312">
  </g>
  <g id="_462828504">
  </g>
  <g id="_462828696">
  </g>
  <g id="_462828888">
  </g>
  <g id="_462829080">
  </g>
 </g>
</svg>
