<?xml version="1.0" encoding="UTF-8"?>
<!DOCTYPE svg PUBLIC "-//W3C//DTD SVG 1.1//EN" "http://www.w3.org/Graphics/SVG/1.1/DTD/svg11.dtd">
<!-- Creator: CorelDRAW X6 -->
<svg xmlns="http://www.w3.org/2000/svg" xml:space="preserve" width="2480px" height="2480px" version="1.1" style="shape-rendering:geometricPrecision; text-rendering:geometricPrecision; image-rendering:optimizeQuality; fill-rule:evenodd; clip-rule:evenodd"
viewBox="0 0 2480 2480"
 xmlns:xlink="http://www.w3.org/1999/xlink">
 <defs>
  <style type="text/css">
   <![CDATA[
    .fil0 {fill:#3EB0F7}
   ]]>
  </style>
 </defs>
 <g id="Слой_x0020_1">
  <metadata id="CorelCorpID_0Corel-Layer"/>
  <path class="fil0" d="M2456 2103l-486 -486 347 -200c27,-16 43,-45 40,-77 -2,-31 -22,-58 -51,-69l-819 -327c16,-62 24,-125 24,-189 0,-416 -339,-755 -756,-755 -416,0 -755,339 -755,755 0,417 339,756 755,756 64,0 128,-8 189,-24l327 819c11,29 38,49 70,51 31,3 61,-13 76,-40l200 -347 486 486c16,15 37,24 58,24 22,0 43,-9 58,-24l237 -237c32,-32 32,-84 0,-116zm-1701 -755c-326,0 -592,-266 -592,-593 0,-326 266,-592 592,-592 327,0 593,266 593,592 0,44 -5,86 -14,128l-155 -62c3,-21 4,-42 4,-63 -2,-235 -195,-428 -430,-430 -1,0 -2,0 -3,0 -113,0 -219,44 -299,123 -80,81 -124,188 -123,302 2,235 195,428 430,430 1,0 2,0 3,0 20,0 40,-2 60,-4l62 155c-42,9 -84,14 -128,14zm5 -694c-30,-12 -65,-5 -88,18 -23,23 -30,58 -18,88l103 260c-145,-2 -265,-122 -266,-268 0,-70 27,-136 76,-185 48,-49 113,-76 183,-76 1,0 1,0 2,0 146,2 266,121 268,266l-260 -103zm1401 1629l-503 -504c-16,-15 -37,-24 -58,-24 -4,0 -7,1 -11,1 -25,3 -47,18 -60,40l-169 293 -484 -1213 1213 484 -293 169c-22,13 -37,35 -40,60 -3,25 5,51 23,69l504 503 -122 122z"/>
  <g id="_464851904">
  </g>
  <g id="_464852624">
  </g>
  <g id="_464852792">
  </g>
  <g id="_464852960">
  </g>
  <g id="_464853128">
  </g>
  <g id="_464853296">
  </g>
  <g id="_464853464">
  </g>
  <g id="_464853632">
  </g>
  <g id="_464853800">
  </g>
  <g id="_464853968">
  </g>
  <g id="_464854136">
  </g>
  <g id="_464854304">
  </g>
  <g id="_464854472">
  </g>
  <g id="_464854640">
  </g>
  <g id="_464854808">
  </g>
 </g>
</svg>
