<?xml version="1.0" encoding="UTF-8"?>
<!DOCTYPE svg PUBLIC "-//W3C//DTD SVG 1.1//EN" "http://www.w3.org/Graphics/SVG/1.1/DTD/svg11.dtd">
<!-- Creator: CorelDRAW X6 -->
<svg xmlns="http://www.w3.org/2000/svg" xml:space="preserve" width="86px" height="75px" version="1.1" style="shape-rendering:geometricPrecision; text-rendering:geometricPrecision; image-rendering:optimizeQuality; fill-rule:evenodd; clip-rule:evenodd"
viewBox="0 0 95 83"
 xmlns:xlink="http://www.w3.org/1999/xlink">
 <defs>
  <style type="text/css">
   <![CDATA[
    .fil0 {fill:#D1D1D1}
   ]]>
  </style>
 </defs>
 <g id="Слой_x0020_1">
  <metadata id="CorelCorpID_0Corel-Layer"/>
  <path class="fil0" d="M40 33l-22 0c-1,0 -1,0 -1,1 0,1 0,2 1,2l22 0c1,0 2,-1 2,-2 0,-1 -1,-1 -2,-1l0 0zm0 5l-22 0c-1,0 -1,1 -1,2 0,0 0,1 1,1l22 0c1,0 2,-1 2,-1 0,-1 -1,-2 -2,-2l0 0zm53 -26c0,0 -1,0 -1,1l0 35 -4 0c0,0 0,-1 0,-1l0 -36c0,-2 -2,-4 -4,-4l-73 0c-2,0 -4,2 -4,4l0 36c0,0 0,1 0,1l-4 0 0 -39c0,-3 3,-6 6,-6l76 0c3,0 6,2 7,4 0,1 1,1 1,1 1,0 1,-1 1,-2 -1,-3 -5,-6 -9,-6l-76 0c-5,0 -9,4 -9,9l0 44c0,5 3,9 7,10 0,0 0,0 1,0 0,0 1,-1 1,-1 0,-1 0,-2 -1,-2 -3,-1 -5,-3 -5,-7l0 -2 89 0 0 2c0,4 -3,7 -7,7l-71 0c-1,0 -1,1 -1,2 0,0 0,1 1,1l20 0 -3 11 -3 0c-2,0 -3,1 -3,3l0 3c0,1 1,3 3,3l38 0c2,0 4,-2 4,-3 0,-3 0,-6 -4,-6l-2 0 -3 -11 24 0c6,0 10,-4 10,-10l0 -40c0,-1 -1,-1 -2,-1l0 0zm-83 6l34 0 -3 3c0,1 -1,1 -1,1l-30 0 0 -4zm75 29c0,0 0,1 -1,1l-73 0c-1,0 -1,-1 -1,-1l0 -22 30 0c1,0 2,-1 3,-2l3 -4c1,0 1,-1 0,-2 0,-1 -1,-2 -2,-2l-34 0 0 -4c0,-1 0,-1 1,-1l73 0c1,0 1,0 1,1l0 36zm-48 16l21 0 3 11 -27 0 3 -11zm43 -40c-3,-6 -8,-10 -15,-10 0,0 0,0 0,0 0,0 0,0 0,0 0,0 0,0 0,0 0,0 0,0 0,0 -7,0 -12,5 -15,11 0,0 0,0 0,0 0,2 0,3 0,5 0,2 0,3 0,5 0,0 0,0 0,0 3,6 8,10 15,10 5,0 9,-1 12,-4 4,-5 5,-11 3,-17zm-4 0l-5 0c0,-2 -1,-5 -2,-7 3,1 6,4 7,7l0 0zm-7 6c0,1 0,2 0,3l-8 0c0,-1 0,-2 0,-3 0,-1 0,-2 0,-3l8 0c0,1 0,2 0,3zm-4 -12c2,1 3,3 3,6l-6 0c0,-3 2,-5 3,-6l0 0zm-3 -1c-2,2 -2,5 -3,7l-5 0c1,-3 4,-6 8,-7l0 0zm-10 13c0,-1 0,-2 1,-3l5 0c0,1 0,2 0,3 0,1 0,2 0,3l-5 0c-1,-1 -1,-2 -1,-3l0 0zm2 6l5 0c1,2 1,4 3,6 -4,-1 -7,-3 -8,-6l0 0zm11 6c-1,-2 -3,-4 -3,-6l6 0c0,2 -1,4 -3,6zm4 0c1,-2 2,-4 2,-6l5 0c-1,3 -4,5 -7,6zm9 -9l-6 0c0,-1 0,-2 0,-3 0,-1 0,-2 0,-3l6 0c0,1 0,2 0,3 0,1 0,2 0,3l0 0zm-27 23c0,-2 -1,-4 -4,-4 -2,0 -4,2 -4,4 0,3 2,4 4,4 3,0 4,-1 4,-4zm-5 0c0,0 1,-1 1,-1 1,0 2,1 2,1 0,1 -1,2 -2,2 0,0 -1,-1 -1,-2zm-14 21l31 0c1,0 1,1 1,1l0 2c0,1 0,1 -1,1l-31 0c-1,0 -1,0 -1,-1l0 -2c0,0 0,-1 1,-1z"/>
 </g>
</svg>
