<?xml version="1.0" encoding="UTF-8"?>
<!DOCTYPE svg PUBLIC "-//W3C//DTD SVG 1.1//EN" "http://www.w3.org/Graphics/SVG/1.1/DTD/svg11.dtd">
<!-- Creator: CorelDRAW X6 -->
<svg xmlns="http://www.w3.org/2000/svg" xml:space="preserve" width="86px" height="75px" version="1.1" style="shape-rendering:geometricPrecision; text-rendering:geometricPrecision; image-rendering:optimizeQuality; fill-rule:evenodd; clip-rule:evenodd"
viewBox="0 0 86 75"
 xmlns:xlink="http://www.w3.org/1999/xlink">
 <defs>
  <style type="text/css">
   <![CDATA[
    .fil0 {fill:#D1D1D1}
   ]]>
  </style>
 </defs>
 <g id="Слой_x0020_1">
  <metadata id="CorelCorpID_0Corel-Layer"/>
  <path class="fil0" d="M78 0l-70 0c-5,0 -8,3 -8,8l0 45c0,4 3,8 8,8l24 0 0 9 -7 0c-1,0 -2,1 -2,2 0,2 1,3 2,3l36 0c1,0 2,-1 2,-3 0,-1 -1,-2 -2,-2l-7 0 0 -9 24 0c5,0 8,-4 8,-8l0 -45c0,-5 -3,-8 -8,-8zm0 56l-70 0c-2,0 -3,-2 -3,-3l0 -7 76 0 0 7c0,1 -1,3 -3,3l0 0zm-41 14l0 -9 12 0 0 9 -12 0zm-29 -65l70 0c2,0 3,1 3,3l0 33 -76 0 0 -33c0,-2 1,-3 3,-3l0 0zm0 0z"/>
  <path class="fil0" d="M44 49l-2 0c-1,0 -3,1 -3,2 0,2 2,3 3,3l2 0c1,0 3,-1 3,-3 0,-1 -2,-2 -3,-2zm0 0z"/>
  <path class="fil0" d="M19 36l10 0c5,0 9,-3 9,-8 0,-3 -2,-6 -5,-8 0,0 0,-1 0,-2 0,-5 -4,-9 -9,-9 -5,0 -9,4 -9,9 0,1 0,2 1,2 -3,2 -5,5 -5,8 0,4 4,8 8,8l0 0zm1 -18c0,-2 2,-4 4,-4 3,0 4,2 4,4 0,3 -1,4 -4,4 -2,0 -4,-1 -4,-4zm-2 7c2,1 4,2 6,2 3,0 5,-1 7,-2 1,0 2,1 2,3 0,2 -2,3 -4,3l-10 0c-2,0 -3,-1 -3,-3 0,-2 1,-3 2,-3l0 0zm0 0z"/>
  <path class="fil0" d="M45 22l26 0c2,0 3,-1 3,-2 0,-2 -1,-3 -3,-3l-26 0c-1,0 -2,1 -2,3 0,1 1,2 2,2l0 0zm0 0z"/>
  <path class="fil0" d="M48 29c0,2 -1,3 -2,3 -1,0 -2,-1 -2,-3 0,-1 1,-2 2,-2 1,0 2,1 2,2zm0 0z"/>
  <path class="fil0" d="M57 29c0,2 -1,3 -2,3 -1,0 -2,-1 -2,-3 0,-1 1,-2 2,-2 1,0 2,1 2,2zm0 0z"/>
  <path class="fil0" d="M67 29c0,2 -2,3 -3,3 -1,0 -2,-1 -2,-3 0,-1 1,-2 2,-2 1,0 3,1 3,2zm0 0z"/>
 </g>
</svg>
