<?xml version="1.0" encoding="UTF-8"?>
<!DOCTYPE svg PUBLIC "-//W3C//DTD SVG 1.1//EN" "http://www.w3.org/Graphics/SVG/1.1/DTD/svg11.dtd">
<!-- Creator: CorelDRAW X6 -->
<svg xmlns="http://www.w3.org/2000/svg" xml:space="preserve" width="1406px" height="2480px" version="1.1" style="shape-rendering:geometricPrecision; text-rendering:geometricPrecision; image-rendering:optimizeQuality; fill-rule:evenodd; clip-rule:evenodd"
viewBox="0 0 1406 2481"
 xmlns:xlink="http://www.w3.org/1999/xlink">
 <defs>
  <style type="text/css">
   <![CDATA[
    .fil0 {fill:#3EB0F7}
   ]]>
  </style>
 </defs>
 <g id="Слой_x0020_1">
  <metadata id="CorelCorpID_0Corel-Layer"/>
  <g id="_459994624">
   <g>
    <path class="fil0" d="M910 124l-414 0c-23,0 -41,19 -41,41 0,23 18,42 41,42l414 0c23,0 41,-19 41,-42 0,-22 -18,-41 -41,-41z"/>
   </g>
  </g>
  <g id="_460000024">
   <g>
    <path class="fil0" d="M1199 124l-41 0c-23,0 -41,19 -41,41 0,23 18,42 41,42l41 0c23,0 42,-19 42,-42 0,-22 -19,-41 -42,-41z"/>
   </g>
  </g>
  <g id="_460003384">
   <g>
    <path class="fil0" d="M754 2109l-102 0c-63,0 -114,51 -114,114l0 20c0,63 51,114 114,114l102 0c63,0 114,-51 114,-114l0 -20c0,-63 -51,-114 -114,-114zm32 134c0,17 -14,31 -32,31l-102 0c-18,0 -32,-14 -32,-31l0 -20c0,-17 14,-31 32,-31l102 0c18,0 32,14 32,31l0 20z"/>
   </g>
  </g>
  <g id="_460002136">
   <g>
    <path class="fil0" d="M1257 0l-1108 0c-82,0 -149,67 -149,149l0 2183c0,82 67,149 149,149l1108 0c82,0 149,-67 149,-149l0 -2183c0,-82 -67,-149 -149,-149zm66 2332c0,36 -30,66 -66,66l-1108 0c-36,0 -66,-30 -66,-66l0 -2183c0,-36 30,-66 66,-66l1108 0c36,0 66,30 66,66l0 2183 0 0z"/>
   </g>
  </g>
  <g id="_459989968">
   <g>
    <path class="fil0" d="M1365 248l-1324 0c-22,0 -41,19 -41,41l0 1737c0,23 19,42 41,42l1324 0c22,0 41,-19 41,-42l0 -1737c0,-22 -19,-41 -41,-41zm-42 1737l-1240 0 0 -1654 1240 0 0 1654z"/>
   </g>
  </g>
  <g id="_459988000">
  </g>
  <g id="_459987856">
  </g>
  <g id="_460012096">
  </g>
  <g id="_459995104">
  </g>
  <g id="_460003576">
  </g>
  <g id="_460013992">
  </g>
  <g id="_459994144">
  </g>
  <g id="_460002352">
  </g>
  <g id="_459991312">
  </g>
  <g id="_460012792">
  </g>
  <g id="_459998368">
  </g>
  <g id="_459996568">
  </g>
  <g id="_460002016">
  </g>
  <g id="_460013560">
  </g>
  <g id="_459996232">
  </g>
 </g>
</svg>
