<?xml version="1.0" encoding="UTF-8"?>
<!DOCTYPE svg PUBLIC "-//W3C//DTD SVG 1.1//EN" "http://www.w3.org/Graphics/SVG/1.1/DTD/svg11.dtd">
<!-- Creator: CorelDRAW X6 -->
<svg xmlns="http://www.w3.org/2000/svg" xml:space="preserve" width="1913px" height="1913px" version="1.1" style="shape-rendering:geometricPrecision; text-rendering:geometricPrecision; image-rendering:optimizeQuality; fill-rule:evenodd; clip-rule:evenodd"
viewBox="0 0 1913 1913"
 xmlns:xlink="http://www.w3.org/1999/xlink">
 <defs>
  <style type="text/css">
   <![CDATA[
    .fil0 {fill:#3EB0F7}
   ]]>
  </style>
 </defs>
 <g id="Слой_x0020_1">
  <metadata id="CorelCorpID_0Corel-Layer"/>
  <g id="_464165704">
   <g>
    <path class="fil0" d="M1367 766c0,-9 -1,-19 -1,-28 41,-31 77,-70 106,-114 -38,17 -79,29 -122,33 44,-26 77,-69 93,-121 -41,25 -86,43 -134,52 -39,-44 -94,-72 -154,-73 -117,-2 -212,97 -212,220 0,18 2,35 6,51 -176,-11 -332,-102 -436,-240 -18,33 -28,71 -28,113 0,78 37,148 94,189 -35,-2 -68,-13 -96,-30 0,1 0,2 0,3 0,110 73,201 169,223 -17,5 -36,7 -55,7 -14,0 -27,-1 -40,-4 27,89 105,155 197,157 -72,60 -163,96 -262,96 -17,0 -34,-2 -50,-4 93,65 204,102 324,102 388,0 601,-338 601,-632z"/>
    <path class="fil0" d="M1913 956c0,-528 -428,-956 -957,-956 -528,0 -956,428 -956,956 0,529 428,957 956,957 529,0 957,-428 957,-957zm-1826 0c0,-480 389,-869 869,-869 481,0 870,389 870,869 0,481 -389,870 -870,870 -480,0 -869,-389 -869,-870z"/>
   </g>
  </g>
  <g id="_464165032">
  </g>
  <g id="_464164864">
  </g>
  <g id="_464164696">
  </g>
  <g id="_464164528">
  </g>
  <g id="_464164360">
  </g>
  <g id="_464164192">
  </g>
  <g id="_464164024">
  </g>
  <g id="_464163856">
  </g>
  <g id="_464163688">
  </g>
  <g id="_464163520">
  </g>
  <g id="_464163352">
  </g>
  <g id="_464163184">
  </g>
  <g id="_464163016">
  </g>
  <g id="_464162848">
  </g>
  <g id="_464162680">
  </g>
 </g>
</svg>
