<?xml version="1.0" encoding="UTF-8"?>
<!DOCTYPE svg PUBLIC "-//W3C//DTD SVG 1.1//EN" "http://www.w3.org/Graphics/SVG/1.1/DTD/svg11.dtd">
<!-- Creator: CorelDRAW X6 -->
<svg xmlns="http://www.w3.org/2000/svg" xml:space="preserve" width="60px" height="60px" version="1.1" style="shape-rendering:geometricPrecision; text-rendering:geometricPrecision; image-rendering:optimizeQuality; fill-rule:evenodd; clip-rule:evenodd"
viewBox="0 0 60 60"
 xmlns:xlink="http://www.w3.org/1999/xlink">
 <defs>
  <style type="text/css">
   <![CDATA[
    .fil0 {fill:white}
   ]]>
  </style>
 </defs>
 <g id="Слой_x0020_1">
  <metadata id="CorelCorpID_0Corel-Layer"/>
  <g id="_314267672">
   <g>
    <g>
     <g>
      <path class="fil0" d="M30 0c-17,0 -30,13 -30,30 0,17 13,30 30,30 17,0 30,-13 30,-30 0,-17 -13,-30 -30,-30zm0 56c-14,0 -26,-12 -26,-26 0,-14 12,-26 26,-26 14,0 26,12 26,26 0,14 -12,26 -26,26z"/>
      <path class="fil0" d="M31 14c0,0 -1,0 -1,0 -1,0 -1,0 -2,0l-13 12c-1,1 -1,2 0,3 1,1 2,1 3,0l12 -11 12 11c1,1 2,1 3,0 1,-1 1,-2 0,-3l-14 -12z"/>
      <path class="fil0" d="M31 29c0,-1 -1,-1 -1,-1 -1,0 -1,0 -2,1l-13 12c-1,0 -1,2 0,3 1,0 2,0 3,0l12 -11 12 11c1,0 2,0 3,0 1,-1 1,-3 0,-3l-14 -12z"/>
     </g>
    </g>
   </g>
  </g>
  <g id="_314271296">
  </g>
  <g id="_314271128">
  </g>
  <g id="_314271488">
  </g>
  <g id="_314271656">
  </g>
  <g id="_314271968">
  </g>
  <g id="_314271800">
  </g>
  <g id="_314272136">
  </g>
  <g id="_314272328">
  </g>
  <g id="_314272520">
  </g>
  <g id="_314272904">
  </g>
  <g id="_314272736">
  </g>
  <g id="_314272568">
  </g>
  <g id="_314273168">
  </g>
  <g id="_314273624">
  </g>
  <g id="_314273456">
  </g>
 </g>
</svg>
